HIERARCHY
ROOT Pelvis
{
	OFFSET 0.000000 0.000000 0.000000
	CHANNELS 6 Xposition Yposition Zposition Xrotation Yrotation Zrotation
	JOINT LeftUpLeg_virtual
	{
		OFFSET 0.000000 0.000000 0.000000
		CHANNELS 3 Xrotation Yrotation Zrotation
		JOINT LeftUpLeg
		{
			OFFSET 18.735201 -5.666702 -4.541200
			CHANNELS 3 Xrotation Yrotation Zrotation
			JOINT LeftLeg
			{
				OFFSET -0.021200 -31.938179 0.493100
				CHANNELS 3 Xrotation Yrotation Zrotation
				JOINT LeftFoot
				{
					OFFSET 0.021200 -31.938179 -4.336299
					CHANNELS 3 Xrotation Yrotation Zrotation
					JOINT LeftToeBase
					{
						OFFSET 0.943001 -26.722000 15.023500
						CHANNELS 3 Xrotation Yrotation Zrotation
						End Site
						{
							OFFSET 0 0 0
						}
					}
				}
			}
		}
	}
	JOINT RightUpLeg_virtual
	{
		OFFSET 0.000000 0.000000 0.000000
		CHANNELS 3 Xrotation Yrotation Zrotation
		JOINT RightUpLeg
		{
			OFFSET -18.735201 -5.666702 -4.541200
			CHANNELS 3 Xrotation Yrotation Zrotation
			JOINT RightLeg
			{
				OFFSET 0.018946 -31.938133 0.493100
				CHANNELS 3 Xrotation Yrotation Zrotation
				JOINT RightFoot
				{
					OFFSET -0.018946 -31.938126 -4.336299
					CHANNELS 3 Xrotation Yrotation Zrotation
					JOINT RightToeBase
					{
						OFFSET -0.943001 -26.722004 15.023500
						CHANNELS 3 Xrotation Yrotation Zrotation
						End Site
						{
							OFFSET 0 0 0
						}
					}
				}
			}
		}
	}
	JOINT Hips_virtual
	{
		OFFSET 0.000000 0.000000 0.000000
		CHANNELS 3 Xrotation Yrotation Zrotation
		JOINT Hips
		{
			OFFSET -0.000000 -0.000000 -0.000000
			CHANNELS 3 Xrotation Yrotation Zrotation
			JOINT Spine
			{
				OFFSET 0.000000 10.199997 -0.299500
				CHANNELS 3 Xrotation Yrotation Zrotation
				JOINT Spine1
				{
					OFFSET 0.000000 11.900002 -1.516600
					CHANNELS 3 Xrotation Yrotation Zrotation
					JOINT Spine2
					{
						OFFSET 0.000000 13.600006 -2.842500
						CHANNELS 3 Xrotation Yrotation Zrotation
						JOINT Neck_virtual
						{
							OFFSET 0.000000 0.000000 0.000000
							CHANNELS 3 Xrotation Yrotation Zrotation
							JOINT Neck
							{
								OFFSET 0.000000 9.624100 -2.890100
								CHANNELS 3 Xrotation Yrotation Zrotation
								JOINT Head
								{
									OFFSET 0.000000 14.068802 -1.351900
									CHANNELS 3 Xrotation Yrotation Zrotation
									End Site
									{
										OFFSET 0 0 0
									}
								}
							}
						}
						JOINT LeftShoulder_virtual
						{
							OFFSET 0.000000 0.000000 0.000000
							CHANNELS 3 Xrotation Yrotation Zrotation
							JOINT LeftShoulder
							{
								OFFSET 15.263000 10.923401 -0.547700
								CHANNELS 3 Xrotation Yrotation Zrotation
								JOINT LeftArm
								{
									OFFSET 25.438599 -2.830597 -13.032500
									CHANNELS 3 Xrotation Yrotation Zrotation
									JOINT LeftForeArm
									{
										OFFSET 29.960503 0.000000 0.000000
										CHANNELS 3 Xrotation Yrotation Zrotation
										JOINT LeftHand
										{
											OFFSET 27.849251 0.000000 0.000000
											CHANNELS 3 Xrotation Yrotation Zrotation
											End Site
											{
												OFFSET 0 0 0
											}
										}
									}
								}
							}
						}
						JOINT RightShoulder_virtual
						{
							OFFSET 0.000000 0.000000 0.000000
							CHANNELS 3 Xrotation Yrotation Zrotation
							JOINT RightShoulder
							{
								OFFSET -15.263000 10.923401 -0.547700
								CHANNELS 3 Xrotation Yrotation Zrotation
								JOINT RightArm
								{
									OFFSET -25.438599 -2.830597 -13.032500
									CHANNELS 3 Xrotation Yrotation Zrotation
									JOINT RightForeArm
									{
										OFFSET -29.960503 0.000000 0.000000
										CHANNELS 3 Xrotation Yrotation Zrotation
										JOINT RightHand
										{
											OFFSET -27.849251 0.000000 0.000000
											CHANNELS 3 Xrotation Yrotation Zrotation
											End Site
											{
												OFFSET 0 0 0
											}
										}
									}
								}
							}
						}
					}
				}
			}
		}
	}
}
MOTION
Frames: 8
Frame Time: 0.03333333
11.293161 88.438789 -10.209137 0.000000 0.000000 0.000000 15.242117 -29.599410 3.172885 -31.904008 6.153488 18.160754 50.790041 10.318032 -5.686903 -0.688127 12.898415 -6.634188 0.000000 0.000000 0.000000 18.010271 17.355719 0.476246 -9.091453 -2.962022 -12.158347 59.152184 1.059473 -4.886187 5.071202 1.786327 4.294065 0.000000 0.000000 0.000000 25.319663 17.129460 -1.186181 35.066219 -25.595348 22.569583 16.024022 -0.461647 0.812144 14.216861 -0.589805 -1.384944 0.000000 0.000000 0.000000 9.630898 1.469258 0.294019 1.796086 -1.543731 2.240858 0.000000 0.000000 0.000000 22.946447 2.559637 -0.262546 6.277567 -15.006014 4.542806 -21.624323 -23.562184 -37.208958 2.100738 -65.681660 3.433776 0.000000 0.000000 0.000000 24.168107 6.459959 1.461292 7.457084 19.850403 7.176245 -21.757173 22.079939 8.292779 -4.752607 44.582895 0.219949 0.000000 0.000000 0.000000 
11.196209 89.272591 -9.841793 0.000000 0.000000 0.000000 15.338604 -29.145459 2.831864 -31.020670 6.332965 17.635326 49.635237 10.411504 -5.616547 -1.466978 13.005642 -6.558535 0.000000 0.000000 0.000000 17.178146 17.052542 0.511568 -10.394543 -2.916376 -12.379486 58.807485 0.704798 -4.922415 4.710764 1.389291 3.929652 0.000000 0.000000 0.000000 24.858960 16.803763 -1.110060 34.036404 -25.612070 21.760496 16.131565 -0.469158 0.875441 14.141520 -0.596347 -1.299469 0.000000 0.000000 0.000000 9.756280 1.453417 0.352721 1.853706 -1.522487 2.216799 0.000000 0.000000 0.000000 22.860816 2.507739 -0.253747 6.229694 -14.803691 3.911585 -20.429378 -23.074414 -37.927576 2.274638 -65.105343 3.194326 0.000000 0.000000 0.000000 24.076048 6.420709 1.600361 7.317687 19.806288 7.961992 -20.932817 21.443232 9.792413 -4.414064 44.438119 0.356641 0.000000 0.000000 0.000000 
11.075212 90.067856 -9.434673 0.000000 0.000000 0.000000 15.436239 -28.753662 2.513489 -30.193910 6.492465 17.133405 48.556655 10.484681 -5.558076 -2.209122 13.093004 -6.508257 0.000000 0.000000 0.000000 16.354183 16.246699 0.528683 -11.683331 -2.994544 -12.695861 58.154840 0.196023 -4.958489 4.111738 0.809232 3.421815 0.000000 0.000000 0.000000 24.380171 16.508210 -1.052415 32.913742 -25.567203 20.836706 16.230486 -0.464369 0.929462 14.058006 -0.596544 -1.219056 0.000000 0.000000 0.000000 9.876196 1.441478 0.396238 1.910968 -1.499167 2.187589 0.000000 0.000000 0.000000 22.767049 2.467351 -0.248650 6.190518 -14.552888 3.297846 -19.270397 -22.507736 -38.644131 2.415345 -64.499341 2.943146 0.000000 0.000000 0.000000 23.985148 6.379658 1.726187 7.198774 19.747568 8.693864 -20.163762 20.738503 11.237421 -4.105541 44.232186 0.484776 0.000000 0.000000 0.000000 
10.935965 90.860428 -9.005688 0.000000 0.000000 0.000000 15.561435 -28.316195 2.221502 -29.374618 6.659787 16.668708 47.532741 10.550055 -5.500191 -2.922810 13.169900 -6.459116 0.000000 0.000000 0.000000 15.555498 15.151023 0.530939 -12.917870 -3.141334 -13.051862 57.195130 -0.371546 -4.991166 3.277970 0.149601 2.864069 0.000000 0.000000 0.000000 23.882212 16.158803 -0.992092 31.769136 -25.605169 19.882768 16.308977 -0.457079 0.985975 13.960009 -0.594655 -1.138058 0.000000 0.000000 0.000000 9.976326 1.426125 0.436560 1.960132 -1.475754 2.158052 0.000000 0.000000 0.000000 22.649749 2.428666 -0.245478 6.144092 -14.279129 2.688841 -18.256008 -21.855745 -39.388410 2.458539 -63.873552 2.634423 0.000000 0.000000 0.000000 23.873941 6.329696 1.847407 7.087390 19.657117 9.373244 -19.517107 19.915597 12.594047 -3.849874 43.897496 0.596043 0.000000 0.000000 0.000000 
10.766487 91.613724 -8.436340 0.000000 0.000000 0.000000 15.710321 -27.847986 1.949213 -28.573089 6.834604 16.236473 46.568708 10.603594 -5.447323 -3.604506 13.233667 -6.420310 0.000000 0.000000 0.000000 14.812476 14.068790 0.543930 -14.031779 -3.288100 -13.356919 55.975320 -0.835860 -4.992852 2.244817 -0.427930 2.448419 0.000000 0.000000 0.000000 23.379037 15.838881 -0.942661 30.593391 -25.528942 18.883945 16.375467 -0.440630 1.040598 13.854096 -0.587680 -1.059311 0.000000 0.000000 0.000000 10.061823 1.416575 0.487599 2.002893 -1.450050 2.135488 0.000000 0.000000 0.000000 22.517754 2.395610 -0.238595 6.100658 -13.991864 2.110524 -17.346278 -21.165887 -40.136292 2.444288 -63.237730 2.301981 0.000000 0.000000 0.000000 23.742262 6.275672 1.966082 6.969018 19.560443 10.053253 -19.039198 19.019311 13.988959 -3.677683 43.494983 0.751824 0.000000 0.000000 0.000000 
10.609983 92.276100 -7.949955 0.000000 0.000000 0.000000 15.855963 -27.317582 1.699591 -27.814579 7.014802 15.851129 45.651881 10.651385 -5.398596 -4.263670 13.290229 -6.387073 0.000000 0.000000 0.000000 14.157257 13.288422 0.580434 -14.956352 -3.371413 -13.542321 54.541598 -1.051162 -4.936263 1.054210 -0.783061 2.343398 0.000000 0.000000 0.000000 22.842507 15.511604 -0.889711 29.310688 -25.419048 17.865207 16.417750 -0.425786 1.091432 13.733786 -0.581124 -0.984171 0.000000 0.000000 0.000000 10.135196 1.411693 0.560236 2.042512 -1.422437 2.126110 0.000000 0.000000 0.000000 22.371714 2.362045 -0.230241 6.063259 -13.706171 1.554135 -16.532688 -20.460047 -40.884290 2.380899 -62.608150 1.952449 0.000000 0.000000 0.000000 23.595093 6.216149 2.081892 6.855871 19.433244 10.713001 -18.685699 18.030166 15.361073 -3.567635 42.992814 0.926302 0.000000 0.000000 0.000000 
10.520071 92.802887 -7.554649 0.000000 0.000000 0.000000 15.991297 -26.780262 1.467065 -27.105647 7.189023 15.497628 44.771846 10.694980 -5.353199 -4.901237 13.342390 -6.358580 0.000000 0.000000 0.000000 13.607660 12.913840 0.627333 -15.659474 -3.368489 -13.605486 52.924127 -0.966930 -4.814246 -0.258710 -0.868922 2.593183 0.000000 0.000000 0.000000 22.295771 15.116030 -0.823954 28.069446 -25.455645 16.934552 16.441698 -0.427106 1.135150 13.603030 -0.582624 -0.914695 0.000000 0.000000 0.000000 10.201688 1.402167 0.649466 2.078576 -1.396315 2.126594 0.000000 0.000000 0.000000 22.211203 2.319876 -0.220424 6.025161 -13.440124 1.015798 -15.817147 -19.749147 -41.635433 2.268691 -61.987416 1.582082 0.000000 0.000000 0.000000 23.440702 6.145664 2.189932 6.750870 19.276213 11.318763 -18.423622 16.995351 16.661750 -3.501003 42.434183 1.096318 0.000000 0.000000 0.000000 
10.381319 93.302399 -7.153072 0.000000 0.000000 0.000000 16.099630 -26.238959 1.250498 -26.460914 7.352373 15.176783 43.937050 10.723108 -5.310329 -5.507527 13.378553 -6.341040 0.000000 0.000000 0.000000 13.155539 12.901792 0.632923 -16.165955 -3.280228 -13.614633 51.152602 -0.644242 -4.647559 -1.669785 -0.740793 3.100353 0.000000 0.000000 0.000000 21.752643 14.679198 -0.765168 26.848591 -25.544475 15.954552 16.452216 -0.440464 1.174461 13.465773 -0.590074 -0.849223 0.000000 0.000000 0.000000 10.256868 1.383886 0.733537 2.109198 -1.373464 2.125361 0.000000 0.000000 0.000000 22.039830 2.266145 -0.206267 5.991710 -13.209620 0.510576 -15.203567 -19.061702 -42.348180 2.124535 -61.389453 1.217972 0.000000 0.000000 0.000000 23.286297 6.070185 2.286247 6.676598 19.120636 11.832463 -18.121525 16.021715 17.841960 -3.415491 41.935237 1.223425 0.000000 0.000000 0.000000 
